<svg width="32" height="32" viewBox="0 0 32 32" fill="none" xmlns="http://www.w3.org/2000/svg">
<path d="M8.00004 17.5C8.00172 17.6318 7.977 17.7626 7.92734 17.8847C7.87768 18.0068 7.80408 18.1177 7.71089 18.2109C7.61769 18.3041 7.50678 18.3776 7.3847 18.4273C7.26262 18.477 7.13183 18.5017 7.00004 18.5H1.50004C1.31426 18.4985 1.13239 18.4465 0.973866 18.3497C0.815342 18.2528 0.686128 18.1146 0.60004 17.95C0.519987 17.7824 0.487004 17.5961 0.504618 17.4112C0.522231 17.2262 0.58978 17.0495 0.70004 16.9C1.58502 15.712 2.76593 14.7768 4.12504 14.1875C3.54103 13.6529 3.09233 12.9873 2.81585 12.2454C2.53938 11.5035 2.44304 10.7065 2.53477 9.92011C2.6265 9.1337 2.90367 8.38031 3.34347 7.72196C3.78327 7.0636 4.37313 6.5191 5.0645 6.13327C5.75587 5.74744 6.52898 5.53131 7.32021 5.50266C8.11143 5.47402 8.89815 5.63368 9.6156 5.96851C10.3331 6.30334 10.9607 6.80376 11.447 7.42859C11.9333 8.05342 12.2642 8.78479 12.4125 9.56251C12.4495 9.76507 12.4239 9.97408 12.339 10.1617C12.2541 10.3493 12.1141 10.5066 11.9375 10.6125C10.3208 11.5712 9.09123 13.0662 8.46254 14.8375C8.15262 15.6908 7.99605 16.5922 8.00004 17.5ZM31.3 16.9C30.4151 15.712 29.2341 14.7768 27.875 14.1875C28.459 13.6529 28.9078 12.9873 29.1842 12.2454C29.4607 11.5035 29.557 10.7065 29.4653 9.92011C29.3736 9.1337 29.0964 8.38031 28.6566 7.72196C28.2168 7.0636 27.6269 6.5191 26.9356 6.13327C26.2442 5.74744 25.4711 5.53131 24.6799 5.50266C23.8887 5.47402 23.1019 5.63368 22.3845 5.96851C21.667 6.30334 21.0393 6.80376 20.5531 7.42859C20.0668 8.05342 19.7359 8.78479 19.5875 9.56251C19.5506 9.76507 19.5762 9.97408 19.6611 10.1617C19.7459 10.3493 19.886 10.5066 20.0625 10.6125C21.6814 11.5687 22.9117 13.0646 23.5375 14.8375C23.8475 15.6908 24.004 16.5922 24 17.5C23.9984 17.6318 24.0231 17.7626 24.0727 17.8847C24.1224 18.0068 24.196 18.1177 24.2892 18.2109C24.3824 18.3041 24.4933 18.3776 24.6154 18.4273C24.7375 18.477 24.8683 18.5017 25 18.5H30.5C30.6858 18.5 30.8678 18.4483 31.0258 18.3507C31.1837 18.253 31.3114 18.1133 31.3945 17.9472C31.4775 17.7811 31.5127 17.5952 31.496 17.4102C31.4793 17.2252 31.4115 17.0486 31.3 16.9ZM19.65 22.2625C20.6453 21.4997 21.3765 20.4442 21.741 19.2445C22.1055 18.0447 22.0849 16.7608 21.6821 15.5733C21.2794 14.3858 20.5147 13.3543 19.4956 12.6238C18.4764 11.8933 17.254 11.5004 16 11.5004C14.7461 11.5004 13.5237 11.8933 12.5045 12.6238C11.4854 13.3543 10.7207 14.3858 10.3179 15.5733C9.91519 16.7608 9.89462 18.0447 10.2591 19.2445C10.6236 20.4442 11.3548 21.4997 12.35 22.2625C10.4057 23.1257 8.82939 24.6489 7.90004 26.5625C7.8261 26.7146 7.79298 26.8833 7.80393 27.052C7.81489 27.2208 7.86955 27.3838 7.96254 27.525C8.04909 27.6699 8.17176 27.7898 8.31857 27.8731C8.46537 27.9564 8.63127 28.0001 8.80004 28H23.2C23.3688 28.0001 23.5347 27.9564 23.6815 27.8731C23.8283 27.7898 23.951 27.6699 24.0375 27.525C24.1305 27.3838 24.1852 27.2208 24.1961 27.052C24.2071 26.8833 24.174 26.7146 24.1 26.5625C23.1707 24.6489 21.5944 23.1257 19.65 22.2625Z" fill="#00B37E"/>
</svg>
