<svg width="56" height="56" viewBox="0 0 56 56" fill="none" xmlns="http://www.w3.org/2000/svg">
<path fill-rule="evenodd" clip-rule="evenodd" d="M28 23.625C24.134 23.625 21 26.759 21 30.625C21 34.491 24.134 37.625 28 37.625C31.866 37.625 35 34.491 35 30.625C35 26.759 31.866 23.625 28 23.625ZM17.5 30.625C17.5 24.826 22.201 20.125 28 20.125C33.799 20.125 38.5 24.826 38.5 30.625C38.5 36.424 33.799 41.125 28 41.125C22.201 41.125 17.5 36.424 17.5 30.625Z" fill="#00B37E"/>
<path fill-rule="evenodd" clip-rule="evenodd" d="M47.9644 28.3213C46.3852 27.5317 44.6435 27.1221 42.8779 27.125C41.9114 27.1266 41.1266 26.3444 41.125 25.3779C41.1234 24.4114 41.9056 23.6266 42.8721 23.625C45.1829 23.6212 47.4627 24.1573 49.5296 25.1908C51.5965 26.2242 53.3933 27.7264 54.7768 29.5774C55.3554 30.3515 55.1968 31.4482 54.4227 32.0268C53.6485 32.6054 52.5519 32.4468 51.9732 31.6727C50.9163 30.2585 49.5435 29.1108 47.9644 28.3213Z" fill="#00B37E"/>
<path fill-rule="evenodd" clip-rule="evenodd" d="M13.1221 27.125C11.3565 27.1221 9.61474 27.5317 8.03561 28.3213C6.45648 29.1108 5.08369 30.2585 4.02674 31.6727C3.44813 32.4468 2.35149 32.6054 1.57733 32.0268C0.803159 31.4482 0.644624 30.3515 1.22323 29.5774C2.60665 27.7264 4.40346 26.2242 6.47036 25.1908C8.53726 24.1573 10.8171 23.6212 13.1279 23.625C14.0944 23.6266 14.8766 24.4114 14.875 25.3779C14.8734 26.3444 14.0886 27.1266 13.1221 27.125Z" fill="#00B37E"/>
<path fill-rule="evenodd" clip-rule="evenodd" d="M28 41.1307C25.7013 41.1307 23.4489 41.7763 21.4992 42.9939C19.5496 44.2116 17.9811 45.9524 16.9725 48.0179C16.5485 48.8864 15.5006 49.2467 14.6321 48.8226C13.7636 48.3985 13.4034 47.3507 13.8275 46.4822C15.1237 43.8275 17.1395 41.5903 19.6452 40.0253C22.1509 38.4604 25.0457 37.6307 28 37.6307C30.9542 37.6307 33.8491 38.4604 36.3548 40.0253C38.8605 41.5903 40.8763 43.8275 42.1725 46.4822C42.5966 47.3507 42.2363 48.3985 41.3679 48.8226C40.4994 49.2467 39.4515 48.8864 39.0275 48.0179C38.0189 45.9524 36.4504 44.2116 34.5007 42.9939C32.5511 41.7763 30.2986 41.1307 28 41.1307Z" fill="#00B37E"/>
<path fill-rule="evenodd" clip-rule="evenodd" d="M14.4217 13.2895C13.4565 13.042 12.4408 13.0743 11.4932 13.3827C10.5457 13.691 9.70549 14.2627 9.07077 15.0308C8.43605 15.799 8.03303 16.7319 7.90882 17.7205C7.7846 18.7092 7.94431 19.7128 8.36929 20.6141C8.79427 21.5154 9.46697 22.2771 10.3088 22.8103C11.1506 23.3434 12.1267 23.626 13.1232 23.625C14.0897 23.624 14.874 24.4067 14.875 25.3732C14.8759 26.3397 14.0932 27.124 13.1267 27.125C11.466 27.1267 9.83907 26.6557 8.43605 25.7671C7.03303 24.8785 5.91188 23.609 5.20358 22.1068C4.49528 20.6047 4.22909 18.932 4.43612 17.2842C4.64314 15.6364 5.31483 14.0816 6.37271 12.8014C7.43058 11.5211 8.83094 10.5684 10.4102 10.0545C11.9894 9.54057 13.6823 9.48669 15.291 9.89915C16.8997 10.3116 18.3578 11.1734 19.4949 12.3837C20.6321 13.5941 21.4013 15.1031 21.7127 16.7344C21.8939 17.6837 21.2712 18.6002 20.3218 18.7815C19.3725 18.9627 18.456 18.34 18.2748 17.3906C18.0879 16.4118 17.6264 15.5065 16.9441 14.7802C16.2618 14.054 15.387 13.537 14.4217 13.2895Z" fill="#00B37E"/>
<path fill-rule="evenodd" clip-rule="evenodd" d="M44.5068 13.3827C43.5592 13.0743 42.5435 13.042 41.5783 13.2895C40.6131 13.537 39.7382 14.054 39.0559 14.7802C38.3736 15.5065 37.9121 16.4118 37.7253 17.3906C37.544 18.34 36.6275 18.9627 35.6782 18.7815C34.7288 18.6002 34.1061 17.6837 34.2873 16.7344C34.5987 15.1031 35.3679 13.5941 36.5051 12.3837C37.6422 11.1734 39.1003 10.3116 40.709 9.89915C42.3177 9.48669 44.0106 9.54057 45.5898 10.0545C47.1691 10.5684 48.5694 11.5211 49.6273 12.8014C50.6852 14.0816 51.3569 15.6364 51.5639 17.2842C51.7709 18.932 51.5047 20.6047 50.7964 22.1068C50.0881 23.609 48.967 24.8785 47.564 25.7671C46.1609 26.6557 44.534 27.1267 42.8733 27.125C41.9068 27.124 41.1241 26.3397 41.1251 25.3732C41.126 24.4067 41.9103 23.624 42.8768 23.625C43.8733 23.626 44.8494 23.3434 45.6912 22.8103C46.533 22.2771 47.2057 21.5154 47.6307 20.6141C48.0557 19.7128 48.2154 18.7092 48.0912 17.7205C47.967 16.7319 47.564 15.799 46.9292 15.0308C46.2945 14.2627 45.4543 13.691 44.5068 13.3827Z" fill="#00B37E"/>
</svg>
